<?xml version="1.0" encoding="UTF-8" standalone="no"?>
<svg
   height="18"
   id="Layer_1"
   version="1.1"
   viewBox="0 0 18 18"
   width="18"
   xml:space="preserve"
   sodipodi:docname="icon_games.svg"
   inkscape:version="1.2.2 (732a01da63, 2022-12-09)"
   xmlns:inkscape="http://www.inkscape.org/namespaces/inkscape"
   xmlns:sodipodi="http://sodipodi.sourceforge.net/DTD/sodipodi-0.dtd"
   xmlns="http://www.w3.org/2000/svg"
   xmlns:svg="http://www.w3.org/2000/svg"><defs
     id="defs2011" /><sodipodi:namedview
     id="namedview2009"
     pagecolor="#ffffff"
     bordercolor="#000000"
     borderopacity="0.25"
     inkscape:showpageshadow="2"
     inkscape:pageopacity="0.0"
     inkscape:pagecheckerboard="0"
     inkscape:deskcolor="#d1d1d1"
     showgrid="false"
     inkscape:zoom="45.222222"
     inkscape:cx="8.5798526"
     inkscape:cy="9"
     inkscape:window-width="1920"
     inkscape:window-height="1017"
     inkscape:window-x="-8"
     inkscape:window-y="-8"
     inkscape:window-maximized="1"
     inkscape:current-layer="Layer_1" /><path
     d="m 4.1752889,2.5997998 c 1.7785664,-0.5456194 2.3370978,0.4881854 4.8247082,0.4881854 2.4876169,0 3.0461479,-1.0379075 4.8247139,-0.4881854 1.778567,0.545619 2.665879,2.477849 3.505651,6.1043726 0.839764,3.6306286 0.685276,6.2520636 -0.305014,6.7402586 -0.990298,0.488177 -2.107347,-0.631776 -3.172901,-2.014295 -0.863537,-1.083031 -1.29531,-1.152774 -4.8524499,-1.152774 -3.5531706,0 -3.9215604,0.02874 -4.8524438,1.152774 C 3.0819996,14.812655 1.96495,15.932608 0.97465268,15.444431 -0.01563819,14.956236 -0.17012613,12.334801 0.66963896,8.7041724 1.5094107,5.0776488 2.4006847,3.1495208 4.1752889,2.5997998 Z M 14.06238,9.3113304 c 0.859577,0 1.556741,-0.72612 1.556741,-1.6245501 0,-0.8943249 -0.697164,-1.6245499 -1.556741,-1.6245499 -0.859576,0 -1.556734,0.730225 -1.556734,1.6245499 0,0.8943251 0.697158,1.6245501 1.556734,1.6245501 z M 6.8728454,8.4867494 c 0.4198794,0 0.7645153,-0.3569116 0.7645153,-0.7958642 0,-0.4389583 -0.3446359,-0.7958639 -0.7645153,-0.7958639 -0.4238414,0 -0.7684579,0.3569056 -0.7684579,0.7958639 0.00392,0.4389526 0.3446165,0.7958642 0.7684579,0.7958642 z M 5.2012333,10.226162 c 0.4198793,0 0.7645023,-0.3569106 0.7645023,-0.7958626 0,-0.443058 -0.344623,-0.795865 -0.7645023,-0.795865 -0.4238546,0 -0.768471,0.356906 -0.768471,0.795865 0,0.443068 0.3446164,0.7958626 0.768471,0.7958626 z m 0,-3.482937 c 0.4198793,0 0.7645023,-0.3569056 0.7645023,-0.7958639 0,-0.4389583 -0.344623,-0.7958695 -0.7645023,-0.7958695 -0.4238546,0 -0.768471,0.3569112 -0.768471,0.7958695 0,0.4389583 0.3446164,0.7958639 0.768471,0.7958639 z M 3.5256588,8.4867494 c 0.4238415,0 0.7645022,-0.3569116 0.7645022,-0.7958642 0,-0.4389583 -0.3446229,-0.7958639 -0.7645022,-0.7958639 -0.4198922,0 -0.7645152,0.3569056 -0.7645152,0.7958639 0,0.4389526 0.3406607,0.7958642 0.7645152,0.7958642 z"
     id="path2006"
     style="stroke-width:0.0403117;image-rendering:auto;fill:#cccccc" /></svg>
