<?xml version="1.0" encoding="UTF-8" standalone="no"?>
<svg
   fill="none"
   height="18"
   viewBox="0 0 18 18"
   width="18"
   version="1.1"
   id="svg2025"
   sodipodi:docname="icon_devtools.svg"
   inkscape:version="1.2.2 (732a01da63, 2022-12-09)"
   xmlns:inkscape="http://www.inkscape.org/namespaces/inkscape"
   xmlns:sodipodi="http://sodipodi.sourceforge.net/DTD/sodipodi-0.dtd"
   xmlns="http://www.w3.org/2000/svg"
   xmlns:svg="http://www.w3.org/2000/svg">
  <defs
     id="defs2029" />
  <sodipodi:namedview
     id="namedview2027"
     pagecolor="#ffffff"
     bordercolor="#000000"
     borderopacity="0.25"
     inkscape:showpageshadow="2"
     inkscape:pageopacity="0.0"
     inkscape:pagecheckerboard="0"
     inkscape:deskcolor="#d1d1d1"
     showgrid="false"
     inkscape:zoom="41.85"
     inkscape:cx="9.9880526"
     inkscape:cy="10.011947"
     inkscape:window-width="1920"
     inkscape:window-height="1017"
     inkscape:window-x="-8"
     inkscape:window-y="-8"
     inkscape:window-maximized="1"
     inkscape:current-layer="svg2025" />
  <path
     d="m 3.530872,1.3548388 c -1.51878,0 -2.75,1.23122 -2.75,2.75 v 8.4984992 c 0,1.5188 1.23122,2.75 2.75,2.75 h 5.8853905 c 0.0342,-0.0804 0.0736,-0.1596 0.1184,-0.2372 l 0.7290995,-1.2628 h -6.73289 c -0.69035,0 -1.25,-0.5596 -1.25,-1.25 V 5.3548188 h 10.99709 v 1.14985 c 0.4644,-0.24828 0.9761,-0.39709 1.5,-0.43724 v -1.96259 c 0,-1.51878 -1.2312,-2.75 -2.75,-2.75 z"
     fill="#212121"
     id="path2017"
     style="fill:#b3b3b3" />
  <path
     d="m 12.134206,11.502528 c -0.6147,-0.8595 -0.7094,-2.0334996 -0.1466,-3.0082896 0.605,-1.04806 1.7896,-1.55295 2.9153,-1.34361 l -1.3106,2.2701 c -0.2558,0.4431 -0.104,1.0096996 0.3391,1.2655996 0.4431,0.2558 1.0098,0.104 1.2656,-0.3391 l 1.3106,-2.2700996 c 0.7441,0.8702 0.8991,2.1484996 0.2941,3.1964996 -0.559,0.9681 -1.6124,1.4728 -2.6571,1.3792 l -2.407,4.1692 c -0.3198,0.5539 -1.0281,0.7436 -1.582,0.4238 -0.5539,-0.3198 -0.7437002,-1.028 -0.4239,-1.5819 z"
     fill="#212121"
     id="path2019"
     style="fill:#cccccc" />
  <path
     d="m 11.319167,10.476344 c -0.1222,-0.6825002 -0.0582,-1.4018202 0.2145,-2.0763602 l -1.9225997,-1.92259 c -0.1953,-0.19527 -0.5119001,-0.19527 -0.7072001,0 -0.19522,0.19526 -0.19521,0.51184 0,0.7071 l 2.1464998,2.14645 -2.1464998,2.1463992 c -0.19522,0.1953 -0.19522,0.5119 0,0.7072 0.1953,0.1952 0.5119001,0.1952 0.7072001,0 z"
     fill="#212121"
     id="path2021"
     style="fill:#e6e6e6" />
  <path
     d="m 6.9437531,6.3818144 c 0.19527,0.19526 0.19527,0.51184 0,0.7071 l -2.14644,2.14645 2.14644,2.1463996 c 0.19527,0.1953 0.19527,0.5119 0,0.7072 -0.19526,0.1952 -0.51184,0.1952 -0.7071,0 l -2.5,-2.4999996 c -0.19527,-0.1953 -0.19527,-0.51189 0,-0.70715 l 2.5,-2.5 c 0.19526,-0.19527 0.51184,-0.19527 0.7071,0 z"
     fill="#212121"
     id="path2023"
     style="fill:#e6e6e6" />
</svg>
